<?xml version="1.0" standalone="no"?>
<!DOCTYPE svg PUBLIC "-//W3C//DTD SVG 20010904//EN"
 "http://www.w3.org/TR/2001/REC-SVG-20010904/DTD/svg10.dtd">
<svg version="1.0" xmlns="http://www.w3.org/2000/svg"
 width="250.000000pt" height="90.000000pt" viewBox="0 0 250.000000 90.000000"
 preserveAspectRatio="xMidYMid meet">

<g transform="translate(0.000000,90.000000) scale(0.100000,-0.100000)"
fill="#000000" stroke="none">
<path d="M990 765 c15 -8 61 -74 115 -164 120 -202 125 -202 125 8 0 118 3
161 13 164 6 3 -8 5 -33 5 -34 0 -39 -2 -20 -7 l25 -7 3 -149 c2 -129 1 -147
-11 -130 -7 11 -51 82 -96 158 -79 130 -85 137 -115 137 l-31 -1 25 -14z"/>
<path d="M1545 766 c-37 -16 -70 -52 -84 -89 -16 -42 -13 -134 5 -172 43 -92
181 -96 235 -8 60 97 17 273 -68 273 -12 0 -8 -6 14 -20 79 -48 66 -252 -19
-299 -36 -20 -94 -5 -121 31 -39 52 -32 194 11 247 9 12 35 28 57 36 22 8 31
14 20 14 -11 0 -33 -6 -50 -13z"/>
<path d="M747 763 c-14 -4 -16 -12 -12 -36 3 -18 6 -92 8 -164 l2 -133 55 2
c41 1 46 2 18 5 l-36 4 -4 74 c-2 60 0 75 12 79 11 3 11 4 -2 5 -16 1 -18 12
-18 81 l0 79 58 4 57 3 -60 1 c-33 0 -68 -1 -78 -4z"/>
<path d="M898 745 c2 -14 6 -25 8 -25 2 0 4 11 4 25 0 14 -4 25 -9 25 -4 0 -6
-11 -3 -25z"/>
<path d="M590 751 c-28 -5 -31 -8 -14 -12 18 -6 21 -19 33 -153 6 -80 9 -151
6 -156 -4 -6 9 -10 32 -9 21 1 31 3 22 6 -17 4 -20 25 -35 230 -6 84 -5 91 12
96 17 4 17 5 -1 5 -11 -1 -36 -4 -55 -7z"/>
<path d="M1790 738 c5 -13 19 -89 31 -170 14 -97 26 -148 34 -148 19 0 25 11
15 29 -5 9 -16 68 -25 131 -9 63 -19 127 -22 142 -4 20 -1 27 13 31 11 3 2 5
-18 6 -35 1 -37 0 -28 -21z"/>
<path d="M1975 703 c-8 -20 -13 -38 -10 -41 3 -3 5 1 6 9 1 35 18 -36 34 -148
11 -77 23 -123 30 -123 19 0 24 11 15 29 -5 9 -19 82 -31 164 -12 81 -23 147
-25 147 -2 0 -11 -16 -19 -37z"/>
<path d="M345 708 c4 -19 35 -286 35 -302 0 -2 -8 -7 -17 -9 -10 -3 11 -3 47
0 73 6 92 13 38 13 -41 0 -37 -12 -59 193 -10 92 -10 110 2 118 10 6 4 9 -19
9 -28 0 -32 -3 -27 -22z"/>
<path d="M2154 687 l0 -32 10 27 c5 15 19 29 30 31 14 3 11 5 -9 6 -27 1 -30
-2 -31 -32z"/>
<path d="M2267 691 c4 -16 -17 -194 -33 -273 -3 -17 -12 -28 -22 -29 -31 -2
32 -17 68 -17 29 1 30 2 8 5 -16 2 -28 5 -28 6 26 170 45 318 42 322 -3 3 -13
5 -23 5 -12 0 -16 -6 -12 -19z"/>
<path d="M118 695 c-3 -3 28 -70 70 -148 41 -78 75 -148 75 -154 0 -7 10 -13
22 -13 19 0 13 15 -59 160 -74 145 -92 171 -108 155z"/>
<path d="M1002 578 c-1 -90 -6 -128 -14 -131 -7 -3 7 -5 32 -5 27 1 34 3 18 5
l-27 4 -4 127 -3 127 -2 -127z"/>
<path d="M102 630 c0 -14 2 -19 5 -12 2 6 2 18 0 25 -3 6 -5 1 -5 -13z"/>
<path d="M2136 635 c-9 -26 -7 -32 5 -12 6 10 9 21 6 23 -2 3 -7 -2 -11 -11z"/>
<path d="M877 604 c12 -3 24 -13 27 -22 3 -12 4 -11 3 3 -2 14 -10 21 -27 22
-21 1 -21 1 -3 -3z"/>
<path d="M2116 585 c-9 -26 -7 -32 5 -12 6 10 9 21 6 23 -2 3 -7 -2 -11 -11z"/>
<path d="M92 570 c0 -14 2 -19 5 -12 2 6 2 18 0 25 -3 6 -5 1 -5 -13z"/>
<path d="M82 505 c0 -16 2 -22 5 -12 2 9 2 23 0 30 -3 6 -5 -1 -5 -18z"/>
<path d="M930 486 c0 -28 -4 -35 -22 -39 -20 -4 -19 -4 5 -6 25 -1 27 2 27 39
0 22 -2 40 -5 40 -3 0 -5 -15 -5 -34z"/>
<path d="M65 413 c-4 -34 -12 -56 -23 -62 -12 -7 -3 -8 28 -4 52 7 65 13 27
13 -29 0 -31 7 -21 58 5 26 12 31 38 34 l31 3 -37 6 -36 5 -7 -53z"/>
<path d="M173 463 c9 -2 23 -2 30 0 6 3 -1 5 -18 5 -16 0 -22 -2 -12 -5z"/>
<path d="M550 432 c0 -7 -10 -13 -22 -13 -19 -1 -20 -2 -4 -6 20 -5 44 12 33
24 -4 3 -7 1 -7 -5z"/>
<path d="M2401 393 c0 -6 -4 -20 -7 -30 -5 -14 -4 -15 5 -7 7 7 11 20 8 30 -3
11 -5 14 -6 7z"/>
<path d="M2333 363 c9 -2 23 -2 30 0 6 3 -1 5 -18 5 -16 0 -22 -2 -12 -5z"/>
<path d="M1430 195 c0 -87 3 -105 15 -105 12 0 15 13 15 61 l0 60 53 -3 52 -3
3 -57 c2 -43 7 -58 17 -58 11 0 15 14 15 54 0 83 -3 86 -76 86 l-64 0 0 35 c0
24 -5 35 -15 35 -12 0 -15 -18 -15 -105z"/>
<path d="M880 260 c0 -11 -7 -23 -15 -26 -8 -4 -15 -10 -15 -15 0 -5 7 -9 15
-9 11 0 15 -12 15 -48 0 -58 12 -72 62 -72 46 0 51 18 6 22 -32 3 -33 5 -36
51 l-3 47 35 0 c20 0 36 5 36 10 0 6 -16 10 -35 10 -31 0 -35 3 -35 25 0 16
-6 25 -15 25 -8 0 -15 -9 -15 -20z"/>
<path d="M1021 211 c-16 -29 -13 -87 5 -105 18 -18 139 -23 149 -6 4 6 -18 10
-59 10 -59 0 -66 2 -66 20 0 18 7 20 66 20 l65 0 -3 38 -3 37 -72 3 c-63 2
-73 0 -82 -17z m129 -21 c0 -17 -7 -20 -50 -20 -43 0 -50 3 -50 20 0 17 7 20
50 20 43 0 50 -3 50 -20z"/>
<path d="M1226 214 c-3 -9 -6 -35 -6 -59 0 -34 5 -47 19 -55 25 -13 138 -13
146 0 4 6 -18 10 -59 10 l-66 0 0 50 0 50 60 0 c33 0 60 4 60 10 0 6 -31 10
-74 10 -58 0 -75 -3 -80 -16z"/>
</g>
</svg>
