<?xml version="1.0" standalone="no"?>
<!DOCTYPE svg PUBLIC "-//W3C//DTD SVG 20010904//EN"
 "http://www.w3.org/TR/2001/REC-SVG-20010904/DTD/svg10.dtd">
<svg version="1.0" xmlns="http://www.w3.org/2000/svg"
 width="258.000000pt" height="91.000000pt" viewBox="0 0 258.000000 91.000000"
 preserveAspectRatio="xMidYMid meet">

<g transform="translate(0.000000,91.000000) scale(0.100000,-0.100000)"
fill="#000000" stroke="none">
<path d="M0 455 l0 -455 1290 0 1290 0 0 455 0 455 -1290 0 -1290 0 0 -455z
m1004 313 c9 -34 7 -58 -4 -58 -5 0 -10 14 -10 30 0 33 -2 33 -74 24 l-46 -7
0 -68 0 -69 39 0 c49 0 71 8 71 26 0 8 5 14 10 14 6 0 9 -19 9 -42 -1 -24 -3
-35 -6 -25 -5 18 -17 20 -75 11 l-38 -7 0 -69 c0 -60 2 -69 16 -64 9 3 40 6
70 6 l54 0 0 35 c0 19 5 35 10 35 13 0 2 -72 -12 -81 -13 -8 -191 -19 -198
-12 -3 3 1 8 8 10 14 5 15 58 5 206 -5 77 -9 97 -21 97 -9 0 -12 3 -8 8 4 4
47 10 94 13 48 3 90 6 93 7 4 1 9 -8 13 -20z m203 -124 c100 -166 99 -166 88
13 -7 109 -8 112 -33 122 -23 8 -19 9 28 9 30 0 47 -2 36 -5 -17 -5 -18 -16
-15 -161 4 -151 3 -157 -16 -159 -16 -2 -37 25 -104 137 -46 77 -85 140 -87
140 -2 0 -4 -60 -4 -134 l0 -135 33 -4 c18 -2 8 -4 -23 -4 -30 0 -47 1 -36 4
16 4 18 11 12 50 -3 25 -6 92 -6 149 0 86 -3 104 -15 104 -8 0 -15 5 -15 10 0
6 15 10 34 10 34 0 37 -4 123 -146z m530 120 c36 -23 56 -73 56 -139 0 -98
-47 -163 -125 -172 -97 -11 -148 42 -148 156 0 92 39 157 105 174 29 7 86 -3
112 -19z m-988 -7 c-15 -11 -15 -26 -3 -157 7 -80 13 -146 14 -147 0 -2 8 -3
17 -3 29 0 9 -7 -39 -14 -32 -5 -48 -4 -48 3 0 6 7 11 16 11 14 0 15 8 10 53
-3 28 -8 86 -11 127 -8 103 -13 120 -33 121 -27 2 28 17 63 18 26 0 28 -1 14
-12z m1166 4 c3 -5 -3 -11 -13 -13 -17 -3 -17 -9 4 -143 19 -129 22 -138 33
-110 7 17 31 79 54 139 23 60 46 108 52 108 7 -1 48 -213 55 -287 1 -10 100
242 100 255 0 4 -10 11 -22 15 -20 7 -18 9 14 12 21 2 46 0 55 -6 17 -10 17
-10 -2 -11 -16 0 -31 -27 -79 -151 -33 -82 -63 -152 -66 -154 -18 -11 -33 22
-46 106 -28 184 -20 180 -76 36 -68 -175 -75 -172 -107 40 -19 125 -28 163
-40 166 -9 3 5 5 31 6 26 0 49 -3 53 -8z m-1395 -21 c0 -5 -7 -10 -16 -10 -12
0 -15 -6 -11 -22 3 -13 11 -77 18 -143 6 -66 15 -123 18 -126 3 -3 31 -3 61 0
l55 6 6 40 6 40 2 -46 c1 -53 5 -51 -134 -64 -60 -6 -68 -5 -54 6 15 13 15 25
0 153 -14 122 -19 140 -36 146 -24 9 -9 17 45 23 19 2 36 5 38 5 1 1 2 -2 2
-8z m1856 -31 c3 -5 -1 -9 -10 -9 -16 0 -19 -10 -41 -169 -17 -120 -15 -130
26 -131 9 0 30 -3 47 -6 29 -6 31 -4 37 30 4 20 11 36 16 36 11 0 11 -7 -2
-53 -9 -35 -12 -37 -42 -32 -18 3 -61 9 -96 15 -61 9 -93 20 -58 20 9 0 17 5
17 11 0 6 9 72 21 147 14 94 17 138 10 140 -6 2 -11 7 -11 11 0 10 79 1 86
-10z m-2034 -144 c57 -113 77 -145 92 -145 35 0 3 -17 -44 -23 -36 -5 -42 -4
-29 5 16 11 16 14 1 45 l-16 34 -56 -7 c-74 -9 -90 -18 -90 -54 0 -26 4 -30
27 -30 16 0 23 -4 17 -9 -13 -12 -94 -21 -94 -10 0 5 6 9 13 9 9 0 20 44 36
142 30 188 30 188 52 188 15 0 36 -35 91 -145z m1198 -265 c0 -30 1 -30 53
-30 29 0 58 -5 65 -12 7 -7 12 -39 12 -75 0 -61 -1 -63 -25 -63 -24 0 -25 3
-25 55 l0 55 -40 0 -40 0 0 -55 c0 -52 -1 -55 -25 -55 l-25 0 0 105 0 105 25
0 c21 0 25 -5 25 -30z m-530 -10 c0 -16 7 -20 35 -20 28 0 35 -4 35 -20 0 -16
-7 -20 -35 -20 -34 0 -35 -1 -35 -40 0 -38 2 -40 30 -40 20 0 30 -5 30 -15 0
-11 -12 -15 -45 -15 -40 0 -47 3 -55 26 -6 14 -10 39 -10 55 0 16 -4 29 -10
29 -16 0 -12 37 5 44 8 3 15 12 15 21 0 8 9 15 20 15 13 0 20 -7 20 -20z m248
-32 c7 -7 12 -29 12 -51 l0 -39 -65 4 c-40 2 -64 -1 -62 -7 2 -5 30 -10 63
-11 46 -1 60 -5 62 -18 3 -14 -8 -16 -77 -16 -90 0 -101 8 -101 75 0 65 12 75
88 75 40 0 73 -5 80 -12z m202 -8 c0 -18 -7 -20 -61 -20 l-60 0 3 -37 3 -38
60 -1 c48 -1 61 -4 63 -18 3 -15 -6 -17 -80 -14 l-83 3 -3 59 c-4 86 -4 86 83
86 68 0 75 -2 75 -20z"/>
<path d="M1612 754 c-37 -25 -55 -73 -55 -144 -1 -79 20 -123 64 -139 43 -15
92 7 115 51 21 40 25 150 6 194 -21 51 -85 69 -130 38z"/>
<path d="M236 655 c-7 -36 -26 -157 -26 -168 0 -10 101 1 113 13 5 4 -12 47
-36 96 -42 83 -45 87 -51 59z"/>
<path d="M1140 220 c0 -5 18 -10 40 -10 22 0 40 5 40 10 0 6 -18 10 -40 10
-22 0 -40 -4 -40 -10z"/>
</g>
</svg>
